<svg version="1.1" xmlns="http://www.w3.org/2000/svg" xmlns:xlink="http://www.w3.org/1999/xlink" x="0px" y="0px" width="16px" height="16px" viewBox="0 0 16 16" enable-background="new 0 0 16 16" xml:space="preserve"><rect width="16" height="16"/><g><path fill="#ffffff" d="M11.187,8.558l1.607,2.772H9.589l-1.596,2.76l-1.596-2.76H3.206l1.596-2.772L3.206,5.786h9.588 L11.187,8.558z M4.85,6.734L5.354,7.61l0.504-0.876H4.85z M4.85,10.37h1.008L5.354,9.506L4.85,10.37z M10.093,8.558L9.05,6.734 h-2.1L5.894,8.558L6.95,10.37h2.1L10.093,8.558z M7.981,2.09c0.352,0.353,0.611,0.72,0.779,1.104 C8.897,3.53,8.962,3.862,8.954,4.19c-0.008,0.288-0.068,0.552-0.18,0.792C8.669,5.198,8.546,5.35,8.401,5.438 c0.049-0.28,0.045-0.56-0.012-0.84C8.341,4.342,8.249,4.11,8.114,3.902C8.089,3.982,8.03,4.09,7.933,4.226 C7.829,4.394,7.749,4.542,7.694,4.67C7.597,4.894,7.526,5.154,7.478,5.45c-0.129-0.144-0.223-0.3-0.281-0.468 C7.136,4.814,7.114,4.658,7.13,4.514c0.023-0.24,0.084-0.492,0.18-0.756c0.072-0.176,0.172-0.396,0.301-0.66 c0.143-0.288,0.23-0.476,0.264-0.564C7.954,2.35,7.989,2.202,7.981,2.09z M7.993,12.193l0.504-0.863H7.501L7.993,12.193z M10.646,7.61l0.504-0.876h-1.008L10.646,7.61z M11.149,10.37l-0.504-0.864l-0.504,0.864H11.149z"/></g></svg>
